<svg width="24" height="24" viewBox="0 0 24 24" fill="none" xmlns="http://www.w3.org/2000/svg">
<rect width="24" height="24" rx="12" fill="#A0A5AB"/>
<path fill-rule="evenodd" clip-rule="evenodd" d="M12 3.6C12.3314 3.6 12.6 3.86863 12.6 4.2V19.8C12.6 20.1314 12.3314 20.4 12 20.4C11.6687 20.4 11.4 20.1314 11.4 19.8V4.2C11.4 3.86863 11.6687 3.6 12 3.6Z" fill="white"/>
<path fill-rule="evenodd" clip-rule="evenodd" d="M8.25439 6.45442C8.92952 5.77928 9.8452 5.4 10.8 5.4H13.2C13.6727 5.4 14.1409 5.49312 14.5776 5.67403C15.0144 5.85495 15.4113 6.12012 15.7456 6.45442C16.0799 6.78871 16.345 7.18557 16.5259 7.62234C16.7069 8.05911 16.8 8.52724 16.8 9C16.8 9.33137 16.5313 9.6 16.2 9.6C15.8686 9.6 15.6 9.33137 15.6 9C15.6 8.68483 15.5379 8.37274 15.4173 8.08156C15.2967 7.79038 15.1199 7.5258 14.897 7.30294C14.6742 7.08008 14.4096 6.9033 14.1184 6.78269C13.8272 6.66208 13.5151 6.6 13.2 6.6H10.8C10.1635 6.6 9.55301 6.85286 9.10292 7.30294C8.65283 7.75303 8.39998 8.36348 8.39998 9C8.39998 9.63652 8.65283 10.247 9.10292 10.6971C9.55301 11.1471 10.1635 11.4 10.8 11.4H13.8C14.7548 11.4 15.6704 11.7793 16.3456 12.4544C17.0207 13.1295 17.4 14.0452 17.4 15C17.4 15.9548 17.0207 16.8705 16.3456 17.5456C15.6704 18.2207 14.7548 18.6 13.8 18.6H10.2C9.2452 18.6 8.32952 18.2207 7.65439 17.5456C6.97926 16.8705 6.59998 15.9548 6.59998 15C6.59998 14.6686 6.8686 14.4 7.19998 14.4C7.53135 14.4 7.79998 14.6686 7.79998 15C7.79998 15.6365 8.05283 16.247 8.50292 16.6971C8.95301 17.1471 9.56346 17.4 10.2 17.4H13.8C14.4365 17.4 15.0469 17.1471 15.497 16.6971C15.9471 16.247 16.2 15.6365 16.2 15C16.2 14.3635 15.9471 13.753 15.497 13.3029C15.0469 12.8529 14.4365 12.6 13.8 12.6H10.8C9.8452 12.6 8.92952 12.2207 8.25439 11.5456C7.57926 10.8705 7.19998 9.95478 7.19998 9C7.19998 8.04522 7.57926 7.12955 8.25439 6.45442Z" fill="white"/>
</svg>
