<svg width="41" height="32" viewBox="0 0 41 32" fill="none" xmlns="http://www.w3.org/2000/svg">
<path d="M13.718 0.756605L25.7045 15.5416C25.9106 15.7958 25.9108 16.1594 25.7052 16.4138L13.7186 31.2426C13.4412 31.5858 12.918 31.5858 12.6406 31.2426L0.654073 16.4138C0.448406 16.1594 0.448669 15.7958 0.654702 15.5416L12.6413 0.756605C12.9186 0.414465 13.4406 0.414465 13.718 0.756605Z" fill="#89A8F2" stroke="#373B8A"/>
<path d="M27.6936 0.756605L39.6801 15.5416C39.8862 15.7958 39.8864 16.1594 39.6808 16.4138L27.6942 31.2426C27.4168 31.5858 26.8936 31.5858 26.6162 31.2426L14.6297 16.4138C14.424 16.1594 14.4243 15.7958 14.6303 15.5416L26.6168 0.756605L26.2311 0.4439L26.6168 0.756605C26.8942 0.414465 27.4162 0.414465 27.6936 0.756605Z" fill="#C8B0F5" stroke="#373B8A"/>
</svg>
