<svg width="512" height="512" viewBox="0 0 512 512" xmlns="http://www.w3.org/2000/svg">
  <g clip-path="url(#clip0_325_120)">
    <rect width="512" height="512" fill="transparent"/>
    <path d="M314.764 248.004L195.893 101.381C191.158 95.5398 182.247 95.5398 177.512 101.381L58.641 248.004C55.1237 252.342 55.1192 258.549 58.6302 262.893L177.501 409.95C182.236 415.808 191.168 415.808 195.904 409.95L314.774 262.893C318.285 258.549 318.281 252.342 314.764 248.004Z" fill="#89A8F2"/>
    <path fill-rule="evenodd" clip-rule="evenodd" d="M308.711 252.911L189.84 106.288C188.224 104.294 185.181 104.294 183.565 106.288L64.6939 252.911C63.493 254.392 63.4915 256.511 64.6902 257.994L183.561 405.051C185.178 407.051 188.227 407.052 189.844 405.051L308.714 257.994C309.913 256.511 309.912 254.392 308.711 252.911ZM195.893 101.381L314.764 248.004C318.281 252.342 318.285 258.549 314.774 262.893L195.904 409.95C191.168 415.808 182.236 415.808 177.501 409.95L58.6302 262.893C55.1192 258.549 55.1237 252.342 58.641 248.004L177.512 101.381C182.247 95.5398 191.158 95.5398 195.893 101.381Z" fill="#373B8A"/>
    <path d="M453.359 248.004L334.489 101.381C329.754 95.5398 320.843 95.5398 316.107 101.381L197.237 248.004C193.719 252.342 193.715 258.549 197.226 262.893L316.096 409.95C320.832 415.808 329.764 415.808 334.5 409.95L453.37 262.893C456.881 258.549 456.877 252.342 453.359 248.004Z" fill="#C8B0F5"/>
    <path fill-rule="evenodd" clip-rule="evenodd" d="M447.306 252.911L328.436 106.288C326.819 104.294 323.777 104.294 322.16 106.288L203.29 252.911C202.089 254.392 202.087 256.511 203.286 257.994L322.156 405.051C323.773 407.052 326.823 407.052 328.44 405.051L447.31 257.994C448.509 256.511 448.507 254.392 447.306 252.911ZM334.489 101.381L453.359 248.004C456.877 252.342 456.881 258.549 453.37 262.893L334.5 409.95C329.764 415.808 320.832 415.808 316.096 409.95L197.226 262.893C193.715 258.549 193.719 252.342 197.237 248.004L316.107 101.381C320.843 95.5398 329.754 95.5398 334.489 101.381Z" fill="#373B8A"/>
  </g>
  <defs>
    <clipPath id="clip0_325_120">
      <rect width="512" height="512" fill="transparent"/>
    </clipPath>
  </defs>
</svg>
