<svg width="24" height="20" viewBox="0 0 24 20" fill="none" xmlns="http://www.w3.org/2000/svg">
<path d="M15.5259 9.54897L8.39367 0.92436C8.10956 0.580796 7.57489 0.580796 7.29078 0.92436L0.158549 9.54897C-0.0524857 9.80416 -0.0527543 10.1693 0.157905 10.4248L7.29013 19.0749C7.57426 19.4195 8.11018 19.4195 8.39431 19.0749L15.5265 10.4248C15.7372 10.1693 15.7369 9.80416 15.5259 9.54897Z" fill="#89A8F2"/>
<path fill-rule="evenodd" clip-rule="evenodd" d="M15.0374 9.93719L7.90522 1.31258C7.87277 1.27333 7.81169 1.27333 7.77923 1.31258L0.647001 9.93719L0.158549 9.54897L7.29078 0.92436C7.57489 0.580796 8.10956 0.580796 8.39367 0.92436L15.5259 9.54897C15.7369 9.80416 15.7372 10.1693 15.5265 10.4248L8.39431 19.0749C8.11018 19.4195 7.57426 19.4195 7.29013 19.0749L0.157905 10.4248C-0.0527543 10.1693 -0.0524857 9.80416 0.158549 9.54897L0.647 9.93719C0.622893 9.96634 0.622862 10.0081 0.646927 10.0372L7.77915 18.6874C7.81161 18.7267 7.87283 18.7267 7.90529 18.6874L15.0375 10.0372C15.0616 10.0081 15.0615 9.96634 15.0374 9.93719Z" fill="#373B8A"/>
<path d="M23.8415 9.54897L16.7093 0.92436C16.4252 0.580796 15.8905 0.580796 15.6064 0.92436L8.47419 9.54897C8.26316 9.80416 8.26289 10.1693 8.47355 10.4248L15.6058 19.0749C15.8899 19.4195 16.4258 19.4195 16.71 19.0749L23.8422 10.4248C24.0528 10.1693 24.0526 9.80416 23.8415 9.54897Z" fill="#C8B0F5"/>
<path fill-rule="evenodd" clip-rule="evenodd" d="M23.3531 9.93719L16.2209 1.31258C16.1884 1.27333 16.1273 1.27333 16.0949 1.31258L8.96264 9.93719C8.93854 9.96634 8.93851 10.0081 8.96257 10.0372L16.0948 18.6874C16.1273 18.7267 16.1885 18.7267 16.2209 18.6874L23.3532 10.0372C23.3772 10.0081 23.3772 9.96634 23.3531 9.93719ZM16.7093 0.92436L23.8415 9.54897C24.0526 9.80416 24.0528 10.1693 23.8422 10.4248L16.71 19.0749C16.4258 19.4195 15.8899 19.4195 15.6058 19.0749L8.47355 10.4248C8.26289 10.1693 8.26316 9.80416 8.47419 9.54897L15.6064 0.92436C15.8905 0.580796 16.4252 0.580796 16.7093 0.92436Z" fill="#373B8A"/>
</svg>
