<svg width="32" height="32" viewBox="0 0 32 32" fill="none" xmlns="http://www.w3.org/2000/svg">
<rect width="32" height="32" rx="16" fill="#F3F3F3"/>
<path d="M20.0619 14.789L12.0709 4.69193C11.7526 4.2897 11.1535 4.2897 10.8352 4.69192L2.84416 14.789C2.60772 15.0878 2.60742 15.5152 2.84344 15.8144L10.8345 25.9413C11.1528 26.3448 11.7533 26.3448 12.0716 25.9413L20.0627 15.8144C20.2987 15.5152 20.2984 15.0878 20.0619 14.789Z" fill="#FABB49"/>
<path fill-rule="evenodd" clip-rule="evenodd" d="M19.631 15.1469L11.6399 5.04984C11.5437 4.92819 11.3625 4.92819 11.2662 5.04984L3.27513 15.1469C3.20362 15.2373 3.20353 15.3666 3.27492 15.4571L11.266 25.5841C11.3622 25.7061 11.5439 25.7061 11.6401 25.5841L19.6312 15.4571C19.7026 15.3666 19.7025 15.2373 19.631 15.1469ZM12.0709 4.69193L20.0619 14.789C20.2984 15.0878 20.2987 15.5152 20.0627 15.8144L12.0716 25.9413C11.7533 26.3448 11.1528 26.3448 10.8345 25.9413L2.84344 15.8144C2.60742 15.5152 2.60772 15.0878 2.84416 14.789L10.8352 4.69192C11.1535 4.2897 11.7526 4.2897 12.0709 4.69193Z" fill="#373B8A"/>
<path d="M29.379 14.789L21.3879 4.69193C21.0696 4.2897 20.4706 4.2897 20.1522 4.69192L12.1612 14.789C11.9247 15.0878 11.9244 15.5152 12.1605 15.8144L20.1515 25.9413C20.4698 26.3448 21.0703 26.3448 21.3886 25.9413L29.3797 15.8144C29.6157 15.5152 29.6154 15.0878 29.379 14.789Z" fill="#C8B0F5"/>
<path fill-rule="evenodd" clip-rule="evenodd" d="M28.948 15.1469L20.957 5.04984C20.8607 4.92819 20.6795 4.92819 20.5832 5.04984L20.2485 4.77191L20.5832 5.04984L12.5922 15.1469C12.5206 15.2373 12.5205 15.3666 12.5919 15.4571L20.583 25.5841C20.6793 25.7061 20.8609 25.7061 20.9572 25.5841L28.9482 15.4571C29.0196 15.3666 29.0195 15.2373 28.948 15.1469ZM12.1612 14.789L20.1522 4.69192C20.4706 4.2897 21.0696 4.2897 21.3879 4.69193L29.379 14.789C29.6154 15.0878 29.6157 15.5152 29.3797 15.8144L21.3886 25.9413C21.0703 26.3448 20.4698 26.3448 20.1515 25.9413L12.1605 15.8144C11.9244 15.5152 11.9247 15.0878 12.1612 14.789Z" fill="#373B8A"/>
</svg>
