<svg width="34" height="34" viewBox="0 0 34 34" fill="none" xmlns="http://www.w3.org/2000/svg">
<g filter="url(#filter0_d_1379_1230)">
<rect width="32" height="32" rx="16" fill="#373B8A" />
<path d="M19.5258 14.8823L12.3936 6.25767C12.1095 5.91411 11.5748 5.91411 11.2907 6.25767L4.15846 14.8823C3.94742 15.1375 3.94715 15.5026 4.15781 15.7581L11.29 24.4082C11.5742 24.7528 12.1101 24.7528 12.3942 24.4082L19.5264 15.7581C19.7371 15.5026 19.7368 15.1375 19.5258 14.8823Z" fill="#89A8F2"/>
<path fill-rule="evenodd" clip-rule="evenodd" d="M19.0373 15.2705L11.9051 6.64589C11.8727 6.60665 11.8116 6.60665 11.7791 6.64589L4.64691 15.2705L4.15846 14.8823L11.2907 6.25767C11.5748 5.91411 12.1095 5.91411 12.3936 6.25767L19.5258 14.8823C19.7368 15.1375 19.7371 15.5026 19.5264 15.7581L12.3942 24.4082C12.1101 24.7528 11.5742 24.7528 11.29 24.4082L4.15781 15.7581C3.94715 15.5026 3.94742 15.1375 4.15846 14.8823L4.64691 15.2705C4.6228 15.2997 4.62277 15.3414 4.64684 15.3706L11.7791 24.0207C11.8115 24.06 11.8727 24.06 11.9052 24.0207L19.0374 15.3705C19.0615 15.3414 19.0615 15.2997 19.0373 15.2705Z" fill="#283B8A"/>
<path d="M27.8412 14.8823L20.709 6.25767C20.4249 5.91411 19.8902 5.91411 19.6061 6.25767L12.4739 14.8823C12.2629 15.1375 12.2626 15.5026 12.4732 15.7581L19.6055 24.4082C19.8896 24.7528 20.4255 24.7528 20.7097 24.4082L27.8419 15.7581C28.0525 15.5026 28.0523 15.1375 27.8412 14.8823Z" fill="#C8B0F5"/>
<path fill-rule="evenodd" clip-rule="evenodd" d="M27.3528 15.2705L20.2206 6.64589C20.1881 6.60665 20.127 6.60665 20.0946 6.64589L12.9623 15.2705C12.9382 15.2997 12.9382 15.3414 12.9623 15.3706L20.0945 24.0207C20.1269 24.06 20.1882 24.06 20.2206 24.0207L27.3529 15.3706C27.3769 15.3414 27.3769 15.2997 27.3528 15.2705ZM20.709 6.25767L27.8412 14.8823C28.0523 15.1375 28.0525 15.5026 27.8419 15.7581L20.7097 24.4082C20.4255 24.7528 19.8896 24.7528 19.6055 24.4082L12.4732 15.7581C12.2626 15.5026 12.2629 15.1375 12.4739 14.8823L19.6061 6.25767C19.8902 5.91411 20.4249 5.91411 20.709 6.25767Z" fill="#283B8A"/>
</g>
<defs>
<filter id="filter0_d_1379_1230" x="0" y="0" width="34" height="34" filterUnits="userSpaceOnUse" color-interpolation-filters="sRGB">
<feFlood flood-opacity="0" result="BackgroundImageFix"/>
<feColorMatrix in="SourceAlpha" type="matrix" values="0 0 0 0 0 0 0 0 0 0 0 0 0 0 0 0 0 0 127 0" result="hardAlpha"/>
<feOffset dx="1" dy="1"/>
<feGaussianBlur stdDeviation="0.5"/>
<feComposite in2="hardAlpha" operator="out"/>
<feColorMatrix type="matrix" values="0 0 0 0 0 0 0 0 0 0 0 0 0 0 0 0 0 0 0.15 0"/>
<feBlend mode="normal" in2="BackgroundImageFix" result="effect1_dropShadow_1379_1230"/>
<feBlend mode="normal" in="SourceGraphic" in2="effect1_dropShadow_1379_1230" result="shape"/>
</filter>
</defs>
</svg>
