<?xml version="1.0" standalone="no"?>
<!DOCTYPE svg PUBLIC "-//W3C//DTD SVG 20010904//EN"
 "http://www.w3.org/TR/2001/REC-SVG-20010904/DTD/svg10.dtd">
<svg version="1.0" xmlns="http://www.w3.org/2000/svg"
 width="512.000000pt" height="512.000000pt" viewBox="0 0 512.000000 512.000000"
 preserveAspectRatio="xMidYMid meet">
<metadata>
Created by potrace 1.14, written by Peter Selinger 2001-2017
</metadata>
<g transform="translate(0.000000,512.000000) scale(0.100000,-0.100000)"
fill="#000000" stroke="none">
<path d="M1618 4574 c-31 -13 -173 -182 -803 -960 -421 -519 -777 -960 -790
-980 -29 -43 -32 -95 -7 -140 20 -36 1523 -1899 1558 -1931 40 -37 99 -48 151
-28 40 15 80 62 440 507 257 318 399 486 405 480 6 -6 184 -225 397 -488 241
-299 398 -484 416 -493 42 -20 107 -18 144 5 26 16 1556 1897 1582 1945 18 34
11 118 -13 153 -13 17 -367 456 -786 973 -675 831 -769 944 -805 958 -45 18
-96 14 -134 -11 -16 -10 -715 -860 -798 -971 -8 -10 -105 103 -405 473 -216
267 -403 492 -414 500 -34 22 -97 26 -138 8z"/>
</g>
</svg>
