<svg width="72" height="10" viewBox="0 0 72 10" fill="none" xmlns="http://www.w3.org/2000/svg">
<path d="M4.42569 9.99292C3.73236 9.99292 3.06936 9.88892 2.43669 9.68092C1.80402 9.46425 1.30569 9.18692 0.941691 8.84892L1.42269 7.83492C1.76936 8.13825 2.21136 8.38958 2.74869 8.58892C3.28602 8.78825 3.84502 8.88792 4.42569 8.88792C4.95436 8.88792 5.38336 8.82725 5.71269 8.70592C6.04202 8.58458 6.28469 8.41992 6.44069 8.21192C6.59669 7.99525 6.67469 7.75258 6.67469 7.48392C6.67469 7.17192 6.57069 6.92058 6.36269 6.72992C6.16336 6.53925 5.89903 6.38758 5.56969 6.27492C5.24902 6.15358 4.89369 6.04958 4.50369 5.96292C4.11369 5.87625 3.71936 5.77658 3.32069 5.66392C2.93069 5.54258 2.57102 5.39092 2.24169 5.20892C1.92102 5.02692 1.66102 4.78425 1.46169 4.48092C1.26236 4.16892 1.16269 3.77025 1.16269 3.28492C1.16269 2.81692 1.28402 2.38792 1.52669 1.99792C1.77802 1.59925 2.15936 1.28292 2.67069 1.04892C3.19069 0.806249 3.84936 0.684916 4.64669 0.684916C5.17536 0.684916 5.69969 0.754249 6.21969 0.892916C6.73969 1.03158 7.19036 1.23092 7.57169 1.49092L7.14269 2.53092C6.75269 2.27092 6.34102 2.08458 5.90769 1.97192C5.47436 1.85058 5.05402 1.78992 4.64669 1.78992C4.13536 1.78992 3.71502 1.85492 3.38569 1.98492C3.05636 2.11492 2.81369 2.28825 2.65769 2.50492C2.51036 2.72158 2.43669 2.96425 2.43669 3.23292C2.43669 3.55358 2.53636 3.80925 2.73569 3.99992C2.94369 4.19058 3.20802 4.34225 3.52869 4.45492C3.85803 4.56758 4.21769 4.67158 4.60769 4.76692C4.99769 4.85358 5.38769 4.95325 5.77769 5.06592C6.17636 5.17858 6.53603 5.32592 6.85669 5.50792C7.18603 5.68992 7.45036 5.93258 7.64969 6.23592C7.84903 6.53925 7.94869 6.92925 7.94869 7.40592C7.94869 7.86525 7.82303 8.29425 7.57169 8.69292C7.32036 9.08292 6.93036 9.39925 6.40169 9.64192C5.88169 9.87592 5.22303 9.99292 4.42569 9.99292ZM13.9429 9.88892V8.43292L13.8779 8.15992V5.67692C13.8779 5.14825 13.7219 4.74092 13.4099 4.45492C13.1066 4.16025 12.6472 4.01292 12.0319 4.01292C11.6246 4.01292 11.2259 4.08225 10.8359 4.22092C10.4459 4.35092 10.1166 4.52858 9.84791 4.75392L9.32791 3.81792C9.68324 3.53192 10.1079 3.31525 10.6019 3.16792C11.1046 3.01192 11.6289 2.93392 12.1749 2.93392C13.1196 2.93392 13.8476 3.16358 14.3589 3.62292C14.8702 4.08225 15.1259 4.78425 15.1259 5.72892V9.88892H13.9429ZM11.6809 9.96692C11.1696 9.96692 10.7189 9.88025 10.3289 9.70692C9.94758 9.53358 9.65291 9.29525 9.44491 8.99192C9.23691 8.67992 9.13291 8.32892 9.13291 7.93892C9.13291 7.56625 9.21958 7.22825 9.39291 6.92492C9.57491 6.62158 9.86524 6.37892 10.2639 6.19692C10.6712 6.01492 11.2172 5.92392 11.9019 5.92392H14.0859V6.82092H11.9539C11.3299 6.82092 10.9096 6.92492 10.6929 7.13292C10.4762 7.34092 10.3679 7.59225 10.3679 7.88692C10.3679 8.22492 10.5022 8.49792 10.7709 8.70592C11.0396 8.90525 11.4122 9.00492 11.8889 9.00492C12.3569 9.00492 12.7642 8.90092 13.1109 8.69292C13.4662 8.48492 13.7219 8.18158 13.8779 7.78292L14.1249 8.64092C13.9602 9.04825 13.6699 9.37325 13.2539 9.61592C12.8379 9.84992 12.3136 9.96692 11.6809 9.96692ZM17.4354 9.88892V2.99892H18.6834V9.88892H17.4354ZM18.0594 1.67292C17.8168 1.67292 17.6131 1.59492 17.4484 1.43892C17.2924 1.28292 17.2144 1.09225 17.2144 0.866916C17.2144 0.632916 17.2924 0.437916 17.4484 0.281916C17.6131 0.125916 17.8168 0.0479156 18.0594 0.0479156C18.3021 0.0479156 18.5014 0.125916 18.6574 0.281916C18.8221 0.429249 18.9044 0.615582 18.9044 0.840916C18.9044 1.07492 18.8264 1.27425 18.6704 1.43892C18.5144 1.59492 18.3108 1.67292 18.0594 1.67292ZM24.7193 9.96692C24.13 9.96692 23.597 9.83692 23.1203 9.57692C22.6523 9.30825 22.2796 8.91392 22.0023 8.39392C21.7336 7.87392 21.5993 7.22392 21.5993 6.44392C21.5993 5.66392 21.738 5.01392 22.0153 4.49392C22.3013 3.97392 22.6783 3.58392 23.1463 3.32392C23.623 3.06392 24.1473 2.93392 24.7193 2.93392C25.3953 2.93392 25.9933 3.08125 26.5133 3.37592C27.0333 3.67058 27.445 4.08225 27.7483 4.61092C28.0516 5.13092 28.2033 5.74192 28.2033 6.44392C28.2033 7.14592 28.0516 7.76125 27.7483 8.28992C27.445 8.81858 27.0333 9.23025 26.5133 9.52492C25.9933 9.81958 25.3953 9.96692 24.7193 9.96692ZM21.0663 9.88892V0.242915H22.3143V4.83192L22.1843 6.43092L22.2623 8.02992V9.88892H21.0663ZM24.6153 8.87492C25.0573 8.87492 25.4516 8.77525 25.7983 8.57592C26.1536 8.37658 26.431 8.09492 26.6303 7.73092C26.8383 7.35825 26.9423 6.92925 26.9423 6.44392C26.9423 5.94992 26.8383 5.52525 26.6303 5.16992C26.431 4.80592 26.1536 4.52425 25.7983 4.32492C25.4516 4.12558 25.0573 4.02592 24.6153 4.02592C24.182 4.02592 23.7876 4.12558 23.4323 4.32492C23.0856 4.52425 22.8083 4.80592 22.6003 5.16992C22.401 5.52525 22.3013 5.94992 22.3013 6.44392C22.3013 6.92925 22.401 7.35825 22.6003 7.73092C22.8083 8.09492 23.0856 8.37658 23.4323 8.57592C23.7876 8.77525 24.182 8.87492 24.6153 8.87492ZM34.1412 9.88892V8.43292L34.0762 8.15992V5.67692C34.0762 5.14825 33.9202 4.74092 33.6082 4.45492C33.3048 4.16025 32.8455 4.01292 32.2302 4.01292C31.8228 4.01292 31.4242 4.08225 31.0342 4.22092C30.6442 4.35092 30.3148 4.52858 30.0462 4.75392L29.5262 3.81792C29.8815 3.53192 30.3062 3.31525 30.8002 3.16792C31.3028 3.01192 31.8272 2.93392 32.3732 2.93392C33.3178 2.93392 34.0458 3.16358 34.5572 3.62292C35.0685 4.08225 35.3242 4.78425 35.3242 5.72892V9.88892H34.1412ZM31.8792 9.96692C31.3678 9.96692 30.9172 9.88025 30.5272 9.70692C30.1458 9.53358 29.8512 9.29525 29.6432 8.99192C29.4352 8.67992 29.3312 8.32892 29.3312 7.93892C29.3312 7.56625 29.4178 7.22825 29.5912 6.92492C29.7732 6.62158 30.0635 6.37892 30.4622 6.19692C30.8695 6.01492 31.4155 5.92392 32.1002 5.92392H34.2842V6.82092H32.1522C31.5282 6.82092 31.1078 6.92492 30.8912 7.13292C30.6745 7.34092 30.5662 7.59225 30.5662 7.88692C30.5662 8.22492 30.7005 8.49792 30.9692 8.70592C31.2378 8.90525 31.6105 9.00492 32.0872 9.00492C32.5552 9.00492 32.9625 8.90092 33.3092 8.69292C33.6645 8.48492 33.9202 8.18158 34.0762 7.78292L34.3232 8.64092C34.1585 9.04825 33.8682 9.37325 33.4522 9.61592C33.0362 9.84992 32.5118 9.96692 31.8792 9.96692ZM49.7439 2.93392C50.2986 2.93392 50.7882 3.04225 51.2129 3.25892C51.6376 3.47558 51.9669 3.80492 52.2009 4.24692C52.4436 4.68892 52.5649 5.24792 52.5649 5.92392V9.88892H51.3169V6.06692C51.3169 5.39958 51.1609 4.89692 50.8489 4.55892C50.5369 4.22092 50.0992 4.05192 49.5359 4.05192C49.1199 4.05192 48.7559 4.13858 48.4439 4.31192C48.1319 4.48525 47.8892 4.74092 47.7159 5.07892C47.5512 5.41692 47.4689 5.83725 47.4689 6.33992V9.88892H46.2209V6.06692C46.2209 5.39958 46.0649 4.89692 45.7529 4.55892C45.4496 4.22092 45.0119 4.05192 44.4399 4.05192C44.0326 4.05192 43.6729 4.13858 43.3609 4.31192C43.0489 4.48525 42.8062 4.74092 42.6329 5.07892C42.4596 5.41692 42.3729 5.83725 42.3729 6.33992V9.88892H41.1249V2.99892H42.3209V4.83192L42.1259 4.36392C42.3426 3.91325 42.6762 3.56225 43.1269 3.31092C43.5776 3.05958 44.1019 2.93392 44.6999 2.93392C45.3586 2.93392 45.9262 3.09858 46.4029 3.42792C46.8796 3.74858 47.1916 4.23825 47.3389 4.89692L46.8319 4.68892C47.0399 4.16025 47.4039 3.73558 47.9239 3.41492C48.4439 3.09425 49.0506 2.93392 49.7439 2.93392ZM59.1382 9.88892V8.43292L59.0732 8.15992V5.67692C59.0732 5.14825 58.9172 4.74092 58.6052 4.45492C58.3019 4.16025 57.8426 4.01292 57.2272 4.01292C56.8199 4.01292 56.4212 4.08225 56.0312 4.22092C55.6412 4.35092 55.3119 4.52858 55.0432 4.75392L54.5232 3.81792C54.8786 3.53192 55.3032 3.31525 55.7972 3.16792C56.2999 3.01192 56.8242 2.93392 57.3702 2.93392C58.3149 2.93392 59.0429 3.16358 59.5542 3.62292C60.0656 4.08225 60.3212 4.78425 60.3212 5.72892V9.88892H59.1382ZM56.8762 9.96692C56.3649 9.96692 55.9142 9.88025 55.5242 9.70692C55.1429 9.53358 54.8482 9.29525 54.6402 8.99192C54.4322 8.67992 54.3282 8.32892 54.3282 7.93892C54.3282 7.56625 54.4149 7.22825 54.5882 6.92492C54.7702 6.62158 55.0606 6.37892 55.4592 6.19692C55.8666 6.01492 56.4126 5.92392 57.0972 5.92392H59.2812V6.82092H57.1492C56.5252 6.82092 56.1049 6.92492 55.8882 7.13292C55.6716 7.34092 55.5632 7.59225 55.5632 7.88692C55.5632 8.22492 55.6976 8.49792 55.9662 8.70592C56.2349 8.90525 56.6076 9.00492 57.0842 9.00492C57.5522 9.00492 57.9596 8.90092 58.3062 8.69292C58.6616 8.48492 58.9172 8.18158 59.0732 7.78292L59.3202 8.64092C59.1556 9.04825 58.8652 9.37325 58.4492 9.61592C58.0332 9.84992 57.5089 9.96692 56.8762 9.96692ZM62.6308 9.88892V2.99892H63.8788V9.88892H62.6308ZM63.2548 1.67292C63.0121 1.67292 62.8084 1.59492 62.6438 1.43892C62.4878 1.28292 62.4098 1.09225 62.4098 0.866916C62.4098 0.632916 62.4878 0.437916 62.6438 0.281916C62.8084 0.125916 63.0121 0.0479156 63.2548 0.0479156C63.4974 0.0479156 63.6968 0.125916 63.8528 0.281916C64.0174 0.429249 64.0998 0.615582 64.0998 0.840916C64.0998 1.07492 64.0218 1.27425 63.8658 1.43892C63.7098 1.59492 63.5061 1.67292 63.2548 1.67292ZM68.2376 9.96692C67.6656 9.96692 67.1196 9.88892 66.5996 9.73292C66.0883 9.57692 65.6853 9.38625 65.3906 9.16092L65.9106 8.17292C66.2053 8.37225 66.5693 8.54125 67.0026 8.67992C67.4359 8.81858 67.8779 8.88792 68.3286 8.88792C68.9093 8.88792 69.3253 8.80558 69.5766 8.64092C69.8366 8.47625 69.9666 8.24658 69.9666 7.95192C69.9666 7.73525 69.8886 7.56625 69.7326 7.44492C69.5766 7.32358 69.3686 7.23258 69.1086 7.17192C68.8573 7.11125 68.5756 7.05925 68.2636 7.01592C67.9516 6.96392 67.6396 6.90325 67.3276 6.83392C67.0156 6.75592 66.7296 6.65192 66.4696 6.52192C66.2096 6.38325 66.0016 6.19692 65.8456 5.96292C65.6896 5.72025 65.6116 5.39958 65.6116 5.00092C65.6116 4.58492 65.7286 4.22092 65.9626 3.90892C66.1966 3.59692 66.5259 3.35858 66.9506 3.19392C67.3839 3.02058 67.8953 2.93392 68.4846 2.93392C68.9353 2.93392 69.3903 2.99025 69.8496 3.10292C70.3176 3.20692 70.6989 3.35858 70.9936 3.55792L70.4606 4.54592C70.1486 4.33792 69.8236 4.19492 69.4856 4.11692C69.1476 4.03892 68.8096 3.99992 68.4716 3.99992C67.9256 3.99992 67.5183 4.09092 67.2496 4.27292C66.9809 4.44625 66.8466 4.67158 66.8466 4.94892C66.8466 5.18292 66.9246 5.36492 67.0806 5.49492C67.2453 5.61625 67.4533 5.71158 67.7046 5.78092C67.9646 5.85025 68.2506 5.91092 68.5626 5.96292C68.8746 6.00625 69.1866 6.06692 69.4986 6.14492C69.8106 6.21425 70.0923 6.31392 70.3436 6.44392C70.6036 6.57392 70.8116 6.75592 70.9676 6.98992C71.1323 7.22392 71.2146 7.53592 71.2146 7.92592C71.2146 8.34192 71.0933 8.70158 70.8506 9.00492C70.6079 9.30825 70.2656 9.54658 69.8236 9.71992C69.3816 9.88458 68.8529 9.96692 68.2376 9.96692Z" fill="#1F51AB"/>
</svg>
