<svg width="15" height="14" viewBox="0 0 15 14" fill="none" xmlns="http://www.w3.org/2000/svg">
<path d="M6.68699 8.26L5.16449 6.7375C5.03616 6.60917 4.87866 6.545 4.69199 6.545C4.50533 6.545 4.34199 6.615 4.20199 6.755C4.07366 6.88333 4.00949 7.04667 4.00949 7.245C4.00949 7.44333 4.07366 7.60667 4.20199 7.735L6.19699 9.73C6.32533 9.85833 6.48866 9.9225 6.68699 9.9225C6.88533 9.9225 7.04866 9.85833 7.17699 9.73L11.1495 5.7575C11.2778 5.62917 11.342 5.47167 11.342 5.285C11.342 5.09833 11.272 4.935 11.132 4.795C11.0037 4.66667 10.8403 4.6025 10.642 4.6025C10.4437 4.6025 10.2803 4.66667 10.152 4.795L6.68699 8.26ZM7.66699 14C6.69866 14 5.78866 13.8161 4.93699 13.4484C4.08533 13.0807 3.34449 12.582 2.71449 11.9525C2.08449 11.3225 1.58586 10.5817 1.21859 9.73C0.851326 8.87833 0.667459 7.96833 0.666992 7C0.666992 6.03167 0.850859 5.12167 1.21859 4.27C1.58633 3.41833 2.08496 2.6775 2.71449 2.0475C3.34449 1.4175 4.08533 0.918867 4.93699 0.5516C5.78866 0.184333 6.69866 0.000466667 7.66699 0C8.63533 0 9.54533 0.183867 10.397 0.5516C11.2487 0.919333 11.9895 1.41797 12.6195 2.0475C13.2495 2.6775 13.7484 3.41833 14.1161 4.27C14.4838 5.12167 14.6675 6.03167 14.667 7C14.667 7.96833 14.4831 8.87833 14.1154 9.73C13.7477 10.5817 13.249 11.3225 12.6195 11.9525C11.9895 12.5825 11.2487 13.0814 10.397 13.4491C9.54533 13.8168 8.63533 14.0005 7.66699 14Z" fill="#1890FF"/>
</svg>
