<svg width="24" height="24" viewBox="0 0 24 24" fill="none" xmlns="http://www.w3.org/2000/svg">
<g id="CurrencyEth">
<path id="Vector (Stroke)" fill-rule="evenodd" clip-rule="evenodd" d="M12 0.75C12.4142 0.75 12.75 1.08579 12.75 1.5V22.5C12.75 22.9142 12.4142 23.25 12 23.25C11.5858 23.25 11.25 22.9142 11.25 22.5V1.5C11.25 1.08579 11.5858 0.75 12 0.75Z" fill="#774BC7"/>
<path id="Vector (Stroke)_2" fill-rule="evenodd" clip-rule="evenodd" d="M3.06723 11.6896C3.23863 11.3125 3.68327 11.1458 4.06035 11.3172L12 14.9261L19.9396 11.3172C20.3167 11.1458 20.7614 11.3125 20.9328 11.6896C21.1042 12.0667 20.9374 12.5113 20.5604 12.6827L12.3104 16.4327C12.1132 16.5223 11.8868 16.5223 11.6896 16.4327L3.43965 12.6827C3.06256 12.5113 2.89582 12.0667 3.06723 11.6896Z" fill="#774BC7"/>
<path id="Vector (Stroke)_3" fill-rule="evenodd" clip-rule="evenodd" d="M12 0.75C12.2301 0.75 12.4475 0.855666 12.5897 1.03663L20.8397 11.5366C21.0534 11.8086 21.0534 12.1914 20.8397 12.4634L12.5897 22.9634C12.4475 23.1443 12.2301 23.25 12 23.25C11.7699 23.25 11.5525 23.1443 11.4103 22.9634L3.16026 12.4634C2.94658 12.1914 2.94658 11.8086 3.16026 11.5366L11.4103 1.03663C11.5525 0.855666 11.7699 0.75 12 0.75ZM4.70381 12L12 21.2861L19.2962 12L12 2.71394L4.70381 12Z" fill="#774BC7"/>
</g>
</svg>
