<svg width="120" height="120" viewBox="0 0 120 120" fill="none" xmlns="http://www.w3.org/2000/svg">
<g id="Multi chat" clip-path="url(#clip0_815_507)">
<path id="Vector" d="M87.5625 105.562H5.0625C2.25 105.562 0 103.312 0 100.5V69.375C0 66.5625 2.25 64.3125 5.0625 64.3125H87.5625C90.375 64.3125 92.625 66.5625 92.625 69.375V100.5C92.625 103.312 90.375 105.562 87.5625 105.562ZM5.0625 67.6875C4.125 67.6875 3.375 68.4375 3.375 69.375V100.5C3.375 101.438 4.125 102.188 5.0625 102.188H87.5625C88.5 102.188 89.25 101.438 89.25 100.5V69.375C89.25 68.4375 88.5 67.6875 87.5625 67.6875H5.0625Z" fill="#B594F3"/>
<path id="Vector_2" d="M14.625 77.0625H10.3125C9.375 77.0625 8.625 76.3125 8.625 75.375C8.625 74.4375 9.375 73.6875 10.3125 73.6875H14.4375C15.375 73.6875 16.125 74.4375 16.125 75.375C16.125 76.3125 15.5625 77.0625 14.625 77.0625ZM26.4375 77.0625H22.3125C21.375 77.0625 20.625 76.3125 20.625 75.375C20.625 74.4375 21.375 73.6875 22.3125 73.6875H26.4375C27.375 73.6875 28.125 74.4375 28.125 75.375C28.125 76.3125 27.375 77.0625 26.4375 77.0625ZM37.6875 77.0625H33.5625C32.625 77.0625 31.875 76.3125 31.875 75.375C31.875 74.4375 32.625 73.6875 33.5625 73.6875H37.6875C38.625 73.6875 39.375 74.4375 39.375 75.375C39.375 76.3125 38.625 77.0625 37.6875 77.0625ZM48.9375 77.0625H44.8125C43.875 77.0625 43.125 76.3125 43.125 75.375C43.125 74.4375 43.875 73.6875 44.8125 73.6875H48.9375C49.875 73.6875 50.625 74.4375 50.625 75.375C50.625 76.3125 49.875 77.0625 48.9375 77.0625ZM58.5 77.0625H54.375C53.4375 77.0625 52.6875 76.3125 52.6875 75.375C52.6875 74.4375 53.4375 73.6875 54.375 73.6875H58.5C59.4375 73.6875 60.1875 74.4375 60.1875 75.375C60.1875 76.3125 59.4375 77.0625 58.5 77.0625ZM70.875 77.0625H66.75C65.8125 77.0625 65.0625 76.3125 65.0625 75.375C65.0625 74.4375 65.8125 73.6875 66.75 73.6875H70.875C71.8125 73.6875 72.5625 74.4375 72.5625 75.375C72.5625 76.3125 71.8125 77.0625 70.875 77.0625ZM81.1875 77.0625H77.0625C76.125 77.0625 75.375 76.3125 75.375 75.375C75.375 74.4375 76.125 73.6875 77.0625 73.6875H81.1875C82.125 73.6875 82.875 74.4375 82.875 75.375C82.875 76.3125 82.125 77.0625 81.1875 77.0625ZM14.625 86.625H10.3125C9.375 86.625 8.625 85.875 8.625 84.9375C8.625 84 9.375 83.25 10.3125 83.25H14.4375C15.375 83.25 16.125 84 16.125 84.9375C16.3125 85.875 15.5625 86.625 14.625 86.625ZM14.625 96H10.3125C9.375 96 8.625 95.25 8.625 94.3125C8.625 93.375 9.375 92.625 10.3125 92.625H14.4375C15.375 92.625 16.125 93.375 16.125 94.3125C16.3125 95.25 15.5625 96 14.625 96ZM26.4375 86.625H22.3125C21.375 86.625 20.625 85.875 20.625 84.9375C20.625 84 21.375 83.25 22.3125 83.25H26.4375C27.375 83.25 28.125 84 28.125 84.9375C28.125 85.875 27.375 86.625 26.4375 86.625ZM26.4375 96H22.3125C21.375 96 20.625 95.25 20.625 94.3125C20.625 93.375 21.375 92.625 22.3125 92.625H26.4375C27.375 92.625 28.125 93.375 28.125 94.3125C28.125 95.25 27.375 96 26.4375 96ZM37.6875 86.625H33.5625C32.625 86.625 31.875 85.875 31.875 84.9375C31.875 84 32.625 83.25 33.5625 83.25H37.6875C38.625 83.25 39.375 84 39.375 84.9375C39.375 85.875 38.625 86.625 37.6875 86.625ZM48.9375 86.625H44.8125C43.875 86.625 43.125 85.875 43.125 84.9375C43.125 84 43.875 83.25 44.8125 83.25H48.9375C49.875 83.25 50.625 84 50.625 84.9375C50.625 85.875 49.875 86.625 48.9375 86.625ZM58.5 86.625H54.375C53.4375 86.625 52.6875 85.875 52.6875 84.9375C52.6875 84 53.4375 83.25 54.375 83.25H58.5C59.4375 83.25 60.1875 84 60.1875 84.9375C60.1875 85.875 59.4375 86.625 58.5 86.625ZM70.875 86.625H66.75C65.8125 86.625 65.0625 85.875 65.0625 84.9375C65.0625 84 65.8125 83.25 66.75 83.25H70.875C71.8125 83.25 72.5625 84 72.5625 84.9375C72.5625 85.875 71.8125 86.625 70.875 86.625ZM81.1875 86.625H77.0625C76.125 86.625 75.375 85.875 75.375 84.9375C75.375 84 76.125 83.25 77.0625 83.25H81.1875C82.125 83.25 82.875 84 82.875 84.9375C82.875 85.875 82.125 86.625 81.1875 86.625ZM81.1875 96H77.0625C76.125 96 75.375 95.25 75.375 94.3125C75.375 93.375 76.125 92.625 77.0625 92.625H81.1875C82.125 92.625 82.875 93.375 82.875 94.3125C82.875 95.25 82.125 96 81.1875 96ZM70.5 96H33.1875C32.25 96 31.5 95.25 31.5 94.3125C31.5 93.375 32.25 92.625 33.1875 92.625H70.5C71.4375 92.625 72.1875 93.375 72.1875 94.3125C72.1875 95.25 71.4375 96 70.5 96Z" fill="#B594F3"/>
<g id="Group">
<path id="Vector_3" d="M66.375 40.3125C55.3125 40.3125 46.3125 31.3125 46.3125 20.25C46.3125 9.1875 55.5 0.375 66.375 0.375C77.4375 0.375 86.4375 9.375 86.4375 20.4375C86.4375 31.5 77.4375 40.3125 66.375 40.3125ZM66.375 3.75C57.1875 3.75 49.6875 11.25 49.6875 20.4375C49.6875 29.625 57.1875 37.125 66.375 37.125C75.5625 37.125 83.0625 29.625 83.0625 20.4375C83.0625 11.25 75.5625 3.75 66.375 3.75Z" fill="#B594F3"/>
<path id="Vector_4" d="M77.625 36.375C76.6875 36.375 75.9375 35.625 75.9375 34.6875C75.9375 29.4375 71.625 25.125 66.375 25.125C61.125 25.125 56.8125 29.4375 56.8125 34.6875C56.8125 35.625 56.0625 36.375 55.125 36.375C54.1875 36.375 53.4375 35.625 53.4375 34.6875C53.4375 27.5625 59.25 21.9375 66.1875 21.9375C73.3125 21.9375 78.9375 27.75 78.9375 34.6875C79.3125 35.8125 78.5625 36.375 77.625 36.375Z" fill="#B594F3"/>
<path id="Vector_5" d="M66 25.3125C61.6875 25.3125 58.125 21.75 58.125 17.4375C58.125 13.125 61.6875 9.5625 66 9.5625C70.3125 9.5625 73.875 13.125 73.875 17.4375C73.875 21.75 70.5 25.3125 66 25.3125ZM66 12.75C63.5625 12.75 61.5 14.8125 61.5 17.25C61.5 19.6875 63.5625 21.75 66 21.75C68.4375 21.75 70.5 19.6875 70.5 17.25C70.5 14.8125 68.625 12.75 66 12.75Z" fill="#B594F3"/>
</g>
<g id="Group_2">
<path id="Vector_6" d="M22.3125 44.0625C19.6875 44.0625 17.0625 43.5 14.4375 42.1875C13.875 42 13.5 41.25 13.5 40.6875C13.5 35.8125 17.4375 31.6875 22.5 31.6875C27.375 31.6875 31.5 35.625 31.5 40.6875C31.5 41.25 31.125 42 30.5625 42.1875C27.75 43.3125 25.125 44.0625 22.3125 44.0625ZM16.875 39.5625C20.625 40.875 24.1875 40.875 27.75 39.5625C27.1875 36.9375 24.9375 35.0625 22.3125 35.0625C19.6875 35.0625 17.4375 37.125 16.875 39.5625Z" fill="#B594F3"/>
<path id="Vector_7" d="M21.9375 35.0625C18.5625 35.0625 15.9375 32.4375 15.9375 29.0625C15.9375 25.6875 18.5625 23.0625 21.9375 23.0625C25.3125 23.0625 27.9375 25.6875 27.9375 29.0625C27.9375 32.4375 25.3125 35.0625 21.9375 35.0625ZM21.9375 26.4375C20.4375 26.4375 19.3125 27.5625 19.3125 29.0625C19.3125 30.5625 20.4375 31.6875 21.9375 31.6875C23.4375 31.6875 24.5625 30.5625 24.5625 29.0625C24.5625 27.75 23.4375 26.4375 21.9375 26.4375Z" fill="#B594F3"/>
</g>
<g id="Group_3">
<path id="Vector_8" d="M92.25 63.9375C89.625 63.9375 87 63.375 84.375 62.0625C83.8125 61.875 83.4375 61.125 83.4375 60.5625C83.4375 55.6875 87.375 51.5625 92.4375 51.5625C97.3125 51.5625 101.437 55.5 101.437 60.5625C101.437 61.125 101.062 61.875 100.5 62.0625C97.5 63.375 94.875 63.9375 92.25 63.9375ZM86.8125 59.625C90.5625 60.9375 94.125 60.9375 97.6875 59.625C97.125 57 94.875 55.125 92.25 55.125C89.4375 55.125 87.1875 57 86.8125 59.625Z" fill="#B594F3"/>
<path id="Vector_9" d="M91.875 55.125C88.5 55.125 85.875 52.5 85.875 49.125C85.875 45.75 88.5 43.125 91.875 43.125C95.25 43.125 97.875 45.75 97.875 49.125C97.875 52.5 95.0625 55.125 91.875 55.125ZM91.875 46.5C90.375 46.5 89.25 47.625 89.25 49.125C89.25 50.625 90.375 51.75 91.875 51.75C93.375 51.75 94.5 50.625 94.5 49.125C94.5 47.8125 93.1875 46.5 91.875 46.5Z" fill="#B594F3"/>
</g>
<g id="Group_4">
<path id="Vector_10" d="M80.4375 53.4375H73.6875C72.75 53.4375 72 52.6875 72 51.75C72 50.8125 72.75 50.0625 73.6875 50.0625H80.4375C81.375 50.0625 82.125 50.8125 82.125 51.75C82.125 52.6875 81.375 53.4375 80.4375 53.4375ZM63.9375 53.4375H57.1875C56.25 53.4375 55.5 52.6875 55.5 51.75C55.5 50.8125 56.25 50.0625 57.1875 50.0625H63.9375C64.875 50.0625 65.625 50.8125 65.625 51.75C65.625 52.6875 64.875 53.4375 63.9375 53.4375ZM47.25 53.4375H40.5C39.5625 53.4375 38.8125 52.6875 38.8125 51.75C38.8125 50.8125 39.5625 50.0625 40.5 50.0625H47.25C48.1875 50.0625 48.9375 50.8125 48.9375 51.75C48.9375 52.6875 48.1875 53.4375 47.25 53.4375ZM30.5625 53.4375H23.8125C22.875 53.4375 22.125 52.6875 22.125 51.75C22.125 50.8125 22.875 50.0625 23.8125 50.0625H30.5625C31.5 50.0625 32.25 50.8125 32.25 51.75C32.25 52.6875 31.5 53.4375 30.5625 53.4375ZM14.625 50.25C14.4375 50.25 14.0625 50.25 13.875 50.0625L12.375 49.3125C11.4375 48.75 10.5 48 9.9375 47.0625L9 45.75C8.4375 45 8.625 43.875 9.375 43.5C10.125 42.9375 11.25 43.125 11.625 43.875L12.5625 45.1875C12.9375 45.75 13.3125 46.125 13.875 46.3125L15.375 47.0625C16.125 47.4375 16.5 48.5625 16.125 49.3125C15.75 49.875 15.1875 50.25 14.625 50.25ZM10.3125 37.3125C9.375 37.3125 8.625 36.5625 8.625 35.625V28.875C8.625 27.9375 9.375 27.1875 10.3125 27.1875C11.25 27.1875 12 27.9375 12 28.875V35.625C12 36.5625 11.25 37.3125 10.3125 37.3125ZM11.4375 22.5C10.875 22.5 10.3125 22.3125 9.9375 21.75C9.375 21 9.75 19.875 10.5 19.5L12 18.5625C12.9375 17.8125 13.875 17.625 15 17.4375L16.6875 17.25C17.625 17.25 18.375 17.8125 18.5625 18.75C18.5625 19.6875 18 20.4375 17.0625 20.625L15.375 20.8125C14.8125 20.8125 14.25 21 13.6875 21.375L12.1875 22.3125C12 22.3125 11.8125 22.5 11.4375 22.5ZM48.1875 20.8125H43.5C42.5625 20.8125 41.8125 20.0625 41.8125 19.125C41.8125 18.1875 42.5625 17.4375 43.5 17.4375H48.1875C49.125 17.4375 49.875 18.1875 49.875 19.125C49.875 20.0625 49.125 20.8125 48.1875 20.8125ZM33.375 20.8125H26.625C25.6875 20.8125 24.9375 20.0625 24.9375 19.125C24.9375 18.1875 25.6875 17.4375 26.625 17.4375H33.375C34.3125 17.4375 35.0625 18.1875 35.0625 19.125C35.0625 20.0625 34.3125 20.8125 33.375 20.8125Z" fill="#B594F3"/>
</g>
<g id="Group_5">
<path id="Vector_11" d="M105.188 62.8125C105 62.8125 105 62.8125 104.813 62.8125C104.438 62.625 104.063 62.625 103.5 62.625C102.563 62.625 101.813 61.875 101.813 60.9375C101.813 60 102.563 59.25 103.5 59.25C104.25 59.25 104.813 59.25 105.563 59.4375C106.5 59.625 107.063 60.5625 106.875 61.5C106.688 62.25 105.938 62.8125 105.188 62.8125ZM103.5 77.0625H101.25C100.313 77.0625 99.5625 76.3125 99.5625 75.375C99.5625 74.4375 100.313 73.6875 101.25 73.6875H103.5C103.688 73.6875 103.875 73.6875 104.063 73.6875C105 73.5 105.75 74.25 105.938 75.1875C105.938 76.125 105.375 76.875 104.438 77.0625C104.063 77.0625 103.875 77.0625 103.5 77.0625ZM110.438 71.8125C110.25 71.8125 110.25 71.8125 110.063 71.8125C109.125 71.625 108.563 70.6875 108.938 69.75C109.125 69.375 109.125 68.8125 109.125 68.4375V68.0625C109.125 67.875 109.125 67.6875 109.125 67.5C108.938 66.5625 109.688 65.8125 110.625 65.625C111.563 65.4375 112.313 66.1875 112.5 67.125C112.5 67.5 112.5 67.6875 112.5 68.0625V68.4375C112.5 69.1875 112.5 69.9375 112.313 70.5C111.75 71.25 111.188 71.8125 110.438 71.8125ZM92.625 77.0625H90.9375C90 77.0625 89.25 76.3125 89.25 75.375C89.25 74.4375 90 73.6875 90.9375 73.6875H92.625C93.5625 73.6875 94.3125 74.4375 94.3125 75.375C94.3125 76.3125 93.5625 77.0625 92.625 77.0625Z" fill="#B594F3"/>
</g>
<path id="Vector_12" d="M105.75 104.25C105.75 104.812 106.125 105.187 106.5 105.375C107.062 105.562 107.625 105.375 107.812 105L112.312 100.5L118.687 100.687C119.25 100.687 119.625 100.312 119.812 99.9373C120 99.3748 119.812 98.8123 119.437 98.6248L114.937 94.1248L115.125 87.7498C115.125 87.1873 114.75 86.8123 114.375 86.6248C113.812 86.4373 113.25 86.6248 113.062 86.9998L108.562 91.4998L102.187 91.3123C101.625 91.3123 101.25 91.6873 101.062 92.0623C100.875 92.6248 101.062 93.1873 101.437 93.3748L105.937 97.8748L105.75 104.25ZM109.125 93.9373C109.5 93.9373 109.875 93.7498 110.062 93.5623L112.687 90.9373V94.6873C112.687 95.0623 112.875 95.4373 113.062 95.6248L115.687 98.2498H111.937C111.562 98.2498 111.187 98.4373 111 98.6248L108.375 101.25V97.4998C108.375 97.1248 108.187 96.7498 108 96.5623L105.375 93.7498L109.125 93.9373ZM33.937 118.875C33.937 119.25 34.1245 119.437 34.312 119.625C34.4995 119.812 34.8745 119.625 35.062 119.437L37.687 116.812H41.437C41.812 116.812 41.9995 116.625 42.187 116.437C42.3745 116.25 42.187 115.875 41.9995 115.687L39.3745 113.062V109.312C39.3745 108.937 39.187 108.75 38.9995 108.562C38.812 108.375 38.437 108.562 38.2495 108.75L35.6245 111.375H31.8745C31.4995 111.375 31.312 111.562 31.1245 111.75C30.937 111.937 31.1245 112.312 31.312 112.5L33.937 115.125V118.875ZM35.812 112.875C35.9995 112.875 36.187 112.875 36.3745 112.687L37.8745 111.187V113.25C37.8745 113.437 37.8745 113.625 38.062 113.812L39.562 115.312H37.4995C37.312 115.312 37.1245 115.312 36.937 115.5L35.437 117V114.937C35.437 114.75 35.437 114.562 35.2495 114.375L33.7495 112.875H35.812Z" fill="#B594F3"/>
</g>
<defs>
<clipPath id="clip0_815_507">
<rect width="120" height="120" fill="white"/>
</clipPath>
</defs>
</svg>
