<svg width="16" height="16" viewBox="0 0 16 16" fill="none" xmlns="http://www.w3.org/2000/svg">
<g id="gas station" clip-path="url(#clip0_229_175)">
<path id="Vector" d="M14.1952 5.52868L12.8618 6.86201C12.7368 6.98701 12.6665 7.15661 12.6665 7.33334V11.6667C12.6665 11.8506 12.5168 12 12.3332 12C12.1496 12 11.9998 11.8506 11.9998 11.6667V6.12501C11.9998 4.99108 11.105 4.07014 9.9855 4.01121C9.91004 2.52341 8.68637 1.33334 7.18017 1.33334H4.15284C2.59817 1.33334 1.33317 2.59801 1.33317 4.15268V14C0.964704 14 0.666504 14.2985 0.666504 14.6667C0.666504 15.0348 0.964704 15.3333 1.33317 15.3333H1.99984H9.33317H9.99984C10.3683 15.3333 10.6665 15.0348 10.6665 14.6667C10.6665 14.2985 10.3683 14 9.99984 14V5.35861C10.3749 5.42081 10.6665 5.73281 10.6665 6.12501V11.6667C10.6665 12.5856 11.4139 13.3333 12.3332 13.3333C13.2524 13.3333 13.9998 12.5856 13.9998 11.6667V7.60941L15.1378 6.47141C15.3982 6.21101 15.3982 5.78914 15.1378 5.52868C14.8774 5.26821 14.4556 5.26821 14.1952 5.52868ZM2.6665 14V4.15268C2.6665 3.33334 3.33317 2.66668 4.15284 2.66668H7.18017C7.99984 2.66668 8.6665 3.33334 8.6665 4.15268V4.63441C8.6659 4.64574 8.65997 4.65521 8.65997 4.66668C8.65997 4.67814 8.6659 4.68761 8.6665 4.69894V14H2.6665Z" fill="#283B8A"/>
<path id="Vector_2" d="M6.66654 4.66666H4.66654C4.29808 4.66666 3.99988 4.96519 3.99988 5.33332C3.99988 5.70146 4.29808 5.99999 4.66654 5.99999H6.66654C7.03501 5.99999 7.33321 5.70146 7.33321 5.33332C7.33321 4.96519 7.03501 4.66666 6.66654 4.66666Z" fill="#283B8A"/>
</g>
<defs>
<clipPath id="clip0_229_175">
<rect width="16" height="16" fill="white"/>
</clipPath>
</defs>
</svg>
