<svg width="24" height="25" viewBox="0 0 24 25" fill="none" xmlns="http://www.w3.org/2000/svg">
<rect y="0.5" width="24" height="24" rx="12" fill="#BDC8E4"/>
<path d="M14.6443 11.6617L9.29519 5.19326C9.0821 4.93558 8.6811 4.93558 8.46802 5.19325L3.11884 11.6617C2.96057 11.8531 2.96037 12.1269 3.11836 12.3186L8.46753 18.8062C8.68063 19.0646 9.08256 19.0646 9.29567 18.8062L14.6448 12.3186C14.8028 12.1269 14.8026 11.8531 14.6443 11.6617Z" fill="#5168B8"/>
<path fill-rule="evenodd" clip-rule="evenodd" d="M14.278 11.9529L8.92885 5.48442C8.90451 5.45499 8.8587 5.45498 8.83435 5.48442L3.48518 11.9529L3.11884 11.6617L8.46802 5.19325C8.6811 4.93558 9.0821 4.93558 9.29519 5.19326L14.6443 11.6617C14.8026 11.8531 14.8028 12.1269 14.6448 12.3186L9.29567 18.8062C9.08256 19.0646 8.68063 19.0646 8.46753 18.8062L3.11836 12.3186C2.96037 12.1269 2.96057 11.8531 3.11884 11.6617L3.48518 11.9529C3.4671 11.9747 3.46708 12.006 3.48513 12.0279L8.8343 18.5155C8.85864 18.545 8.90455 18.545 8.9289 18.5155L14.2781 12.0279C14.2961 12.006 14.2961 11.9747 14.278 11.9529Z" fill="#283B8A"/>
<path d="M20.8807 11.6617L15.5315 5.19326C15.3184 4.93558 14.9174 4.93558 14.7043 5.19325L9.35517 11.6617C9.1969 11.8531 9.19669 12.1269 9.35469 12.3186L14.7039 18.8062C14.917 19.0646 15.3189 19.0646 15.532 18.8062L20.8812 12.3186C21.0392 12.1269 21.039 11.8531 20.8807 11.6617Z" fill="#9A80D2"/>
<path fill-rule="evenodd" clip-rule="evenodd" d="M20.5143 11.9529L15.1652 5.48442C15.1408 5.45498 15.095 5.45499 15.0707 5.48442L9.72151 11.9529C9.70343 11.9747 9.70341 12.006 9.72145 12.0279L15.0706 18.5155C15.095 18.545 15.1409 18.545 15.1652 18.5155L20.5144 12.0279C20.5324 12.006 20.5324 11.9747 20.5143 11.9529ZM15.5315 5.19326L20.8807 11.6617C21.039 11.8531 21.0392 12.1269 20.8812 12.3186L15.532 18.8062C15.3189 19.0646 14.917 19.0646 14.7039 18.8062L9.35469 12.3186C9.19669 12.1269 9.1969 11.8531 9.35517 11.6617L14.7043 5.19325C14.9174 4.93558 15.3184 4.93558 15.5315 5.19326Z" fill="#283B8A"/>
</svg>
