<svg width="18" height="14" viewBox="0 0 18 14" fill="none" xmlns="http://www.w3.org/2000/svg">
<g id="Group 8">
<g id="Stake Together">
<path id="Vector" d="M11.6443 6.66171L6.29519 0.193255C6.0821 -0.0644183 5.6811 -0.0644183 5.46802 0.193255L0.118843 6.66171C-0.039433 6.85311 -0.0396344 7.12694 0.11836 7.31856L5.46753 13.8062C5.68063 14.0646 6.08256 14.0646 6.29567 13.8062L11.6448 7.31856C11.8028 7.12694 11.8026 6.85311 11.6443 6.66171Z" fill="#89A8F2"/>
<path id="Vector (Stroke)" fill-rule="evenodd" clip-rule="evenodd" d="M11.278 6.95288L5.92885 0.48442C5.90451 0.454985 5.8587 0.454985 5.83435 0.484421L0.485182 6.95288L0.118843 6.66171L5.46802 0.193255C5.6811 -0.0644183 6.0821 -0.0644183 6.29519 0.193255L11.6443 6.66171C11.8026 6.85311 11.8028 7.12694 11.6448 7.31856L6.29567 13.8062C6.08256 14.0646 5.68063 14.0646 5.46753 13.8062L0.11836 7.31856C-0.0396344 7.12694 -0.039433 6.85311 0.118843 6.66171L0.485181 6.95288C0.467101 6.97474 0.467077 7.00602 0.485127 7.02792L5.8343 13.5155C5.85864 13.545 5.90455 13.545 5.9289 13.5155L11.2781 7.02791C11.2961 7.00602 11.2961 6.97474 11.278 6.95288Z" fill="#283B8A"/>
<path id="Vector_2" d="M17.8807 6.66171L12.5315 0.193255C12.3184 -0.0644183 11.9174 -0.0644183 11.7043 0.193255L6.35517 6.66171C6.1969 6.85311 6.19669 7.12694 6.35469 7.31856L11.7039 13.8062C11.917 14.0646 12.3189 14.0646 12.532 13.8062L17.8812 7.31856C18.0392 7.12694 18.039 6.85311 17.8807 6.66171Z" fill="#C8B0F5"/>
<path id="Vector (Stroke)_2" fill-rule="evenodd" clip-rule="evenodd" d="M17.5143 6.95288L12.1652 0.48442C12.1408 0.454985 12.095 0.454985 12.0707 0.484421L6.72151 6.95288C6.70343 6.97474 6.70341 7.00602 6.72145 7.02792L12.0706 13.5155C12.095 13.545 12.1409 13.545 12.1652 13.5155L17.5144 7.02791C17.5324 7.00602 17.5324 6.97474 17.5143 6.95288ZM12.5315 0.193255L17.8807 6.66171C18.039 6.85311 18.0392 7.12694 17.8812 7.31856L12.532 13.8062C12.3189 14.0646 11.917 14.0646 11.7039 13.8062L6.35469 7.31856C6.19669 7.12694 6.1969 6.85311 6.35517 6.66171L11.7043 0.193255C11.9174 -0.0644183 12.3184 -0.0644183 12.5315 0.193255Z" fill="#283B8A"/>
</g>
</g>
</svg>
