<svg width="108" height="108" viewBox="0 0 108 108" fill="none" xmlns="http://www.w3.org/2000/svg">
<g id="CurrencyEth">
<path id="Vector (Stroke)" fill-rule="evenodd" clip-rule="evenodd" d="M54 3.375C55.864 3.375 57.375 4.88604 57.375 6.75V101.25C57.375 103.114 55.864 104.625 54 104.625C52.136 104.625 50.625 103.114 50.625 101.25V6.75C50.625 4.88604 52.136 3.375 54 3.375Z" fill="#D6D8DA"/>
<path id="Vector (Stroke)_2" fill-rule="evenodd" clip-rule="evenodd" d="M13.8025 52.6035C14.5738 50.9066 16.5747 50.1563 18.2716 50.9276L54 67.1678L89.7284 50.9276C91.4253 50.1563 93.4262 50.9066 94.1975 52.6035C94.9688 54.3004 94.2185 56.3013 92.5216 57.0726L55.3966 73.9476C54.5092 74.3509 53.4908 74.3509 52.6034 73.9476L15.4784 57.0726C13.7815 56.3013 13.0312 54.3004 13.8025 52.6035Z" fill="#D6D8DA"/>
<path id="Vector (Stroke)_3" fill-rule="evenodd" clip-rule="evenodd" d="M54 3.375C55.0357 3.375 56.014 3.8505 56.6538 4.66485L93.7788 51.9149C94.7404 53.1387 94.7404 54.8613 93.7788 56.0851L56.6538 103.335C56.014 104.15 55.0357 104.625 54 104.625C52.9643 104.625 51.986 104.15 51.3462 103.335L14.2212 56.0851C13.2596 54.8613 13.2596 53.1387 14.2212 51.9149L51.3462 4.66485C51.986 3.8505 52.9643 3.375 54 3.375ZM21.1672 54L54 95.7873L86.8328 54L54 12.2127L21.1672 54Z" fill="#D6D8DA"/>
</g>
</svg>
