<svg width="40" height="40" viewBox="0 0 40 40" fill="none" xmlns="http://www.w3.org/2000/svg">
<rect width="40" height="40" rx="8" fill="white"/>
<g clip-path="url(#clip0_858_2123)">
<path d="M21.2421 7.6113C23.1764 5.0134 25.8655 5.00073 25.8655 5.00073C25.8655 5.00073 26.2655 7.4432 24.3439 9.79608C22.2921 12.3084 19.9599 11.8973 19.9599 11.8973C19.9599 11.8973 19.522 9.92145 21.2421 7.6113ZM20.2059 13.6083C21.201 13.6083 23.0479 12.2144 25.4518 12.2144C29.5898 12.2144 31.2176 15.2148 31.2176 15.2148C31.2176 15.2148 28.0338 16.8735 28.0338 20.8984C28.0338 25.4388 32 27.0036 32 27.0036C32 27.0036 29.2275 34.9555 25.4826 34.9555C23.7626 34.9555 22.4254 33.7744 20.6131 33.7744C18.7663 33.7744 16.9335 34.9995 15.7398 34.9995C12.3202 34.9996 8 27.4565 8 21.393C8 15.4274 11.6568 12.298 15.0867 12.298C17.3164 12.298 19.0467 13.6083 20.2059 13.6083Z" fill="#999999"/>
</g>
<defs>
<clipPath id="clip0_858_2123">
<rect width="24" height="30" fill="white" transform="translate(8 5)"/>
</clipPath>
</defs>
</svg>
