<svg width="48" height="48" viewBox="0 0 48 48" fill="none" xmlns="http://www.w3.org/2000/svg">
<rect width="48" height="48" fill="white"/>
<path d="M25.5526 8.21983C27.9704 5.01562 31.3319 5 31.3319 5C31.3319 5 31.8319 8.0125 29.4298 10.9145C26.8651 14.0132 23.9499 13.5061 23.9499 13.5061C23.9499 13.5061 23.4025 11.0691 25.5526 8.21983ZM24.2574 15.6164C25.5013 15.6164 27.8098 13.8972 30.8148 13.8972C35.9872 13.8972 38.0221 17.5978 38.0221 17.5978C38.0221 17.5978 34.0423 19.6437 34.0423 24.6079C34.0423 30.208 39 32.138 39 32.138C39 32.138 35.5344 41.9457 30.8533 41.9457C28.7033 41.9457 27.0317 40.4889 24.7664 40.4889C22.4578 40.4889 20.1669 42 18.6748 42C14.4002 42.0001 9 32.6965 9 25.218C9 17.8601 13.571 14.0003 17.8583 14.0003C20.6455 14.0003 22.8084 15.6164 24.2574 15.6164Z" fill="#888888"/>
</svg>
