<svg width="40" height="40" viewBox="0 0 40 40" fill="none" xmlns="http://www.w3.org/2000/svg">
<g clip-path="url(#clip0_858_2114)">
<path fill-rule="evenodd" clip-rule="evenodd" d="M8.3312 0H31.6672C36.2704 0 40 4.0128 40 8.9632V31.0368C40 35.9872 36.2704 40 31.6688 40H8.3312C3.7296 40 0 35.9872 0 31.0368V8.9632C0 4.0128 3.7296 0 8.3312 0Z" fill="#0052FF"/>
<path fill-rule="evenodd" clip-rule="evenodd" d="M20.0001 5.79358C27.8465 5.79358 34.2065 12.1536 34.2065 20C34.2065 27.8464 27.8465 34.2064 20.0001 34.2064C12.1537 34.2064 5.7937 27.8464 5.7937 20C5.7937 12.1536 12.1537 5.79358 20.0001 5.79358Z" fill="white"/>
<path fill-rule="evenodd" clip-rule="evenodd" d="M16.5008 15.4592H23.4976C24.0736 15.4592 24.5392 15.9616 24.5392 16.5792V23.4192C24.5392 24.0384 24.072 24.5392 23.4976 24.5392H16.5008C15.9248 24.5392 15.4592 24.0368 15.4592 23.4192V16.5792C15.4592 15.9616 15.9264 15.4592 16.5008 15.4592Z" fill="#0052FF"/>
</g>
<defs>
<clipPath id="clip0_858_2114">
<rect width="40" height="40" fill="white"/>
</clipPath>
</defs>
</svg>
