<svg width="40" height="40" viewBox="0 0 40 40" fill="none" xmlns="http://www.w3.org/2000/svg">
<rect width="40" height="40" rx="8" fill="#1877F2"/>
<g clip-path="url(#clip0_858_2120)">
<path d="M38 22C38 12.0589 29.9411 4 20 4C10.0589 4 2 12.0589 2 22C2 30.9843 8.58234 38.431 17.1875 39.7812V27.2031H12.6172V22H17.1875V18.0344C17.1875 13.5231 19.8748 11.0312 23.9863 11.0312C25.9557 11.0312 28.0156 11.3828 28.0156 11.3828V15.8125H25.7458C23.5098 15.8125 22.8125 17.2 22.8125 18.6235V22H27.8047L27.0066 27.2031H22.8125V39.7812C31.4177 38.431 38 30.9843 38 22Z" fill="#1877F2"/>
<path d="M27.0066 27.2031L27.8047 22H22.8125V18.6235C22.8125 17.2 23.5098 15.8125 25.7458 15.8125H28.0156V11.3828C28.0156 11.3828 25.9557 11.0312 23.9863 11.0312C19.8748 11.0312 17.1875 13.5231 17.1875 18.0344V22H12.6172V27.2031H17.1875V40C19 40 21 40 22.8125 40V27.2031H27.0066Z" fill="white"/>
</g>
<defs>
<clipPath id="clip0_858_2120">
<rect width="36" height="36" fill="white" transform="translate(2 4)"/>
</clipPath>
</defs>
</svg>
