<svg width="40" height="40" viewBox="0 0 40 40" fill="none" xmlns="http://www.w3.org/2000/svg">
<rect width="40" height="40" rx="8" fill="white"/>
<g clip-path="url(#clip0_858_2121)">
<path d="M35.6185 20.2994C35.6185 18.9884 35.5121 18.0317 35.2819 17.0396H20.3113V22.9569H29.0987C28.9216 24.4274 27.9649 26.642 25.8389 28.1301L25.8091 28.3282L30.5425 31.9952L30.8704 32.0279C33.8822 29.2463 35.6185 25.1537 35.6185 20.2994Z" fill="#4285F4"/>
<path d="M20.3114 35.8901C24.6165 35.8901 28.2307 34.4727 30.8706 32.0279L25.839 28.1301C24.4925 29.0691 22.6854 29.7246 20.3114 29.7246C16.0949 29.7246 12.5161 26.9432 11.2404 23.0986L11.0534 23.1145L6.13151 26.9236L6.06714 27.1025C8.68918 32.3112 14.0751 35.8901 20.3114 35.8901Z" fill="#34A853"/>
<path d="M11.2405 23.0986C10.9039 22.1065 10.709 21.0434 10.709 19.945C10.709 18.8465 10.9039 17.7835 11.2228 16.7914L11.2138 16.5801L6.23027 12.7098L6.06722 12.7874C4.98655 14.9489 4.36646 17.3761 4.36646 19.945C4.36646 22.5139 4.98655 24.941 6.06722 27.1025L11.2405 23.0986Z" fill="#FBBC05"/>
<path d="M20.3114 10.1654C23.3055 10.1654 25.3252 11.4587 26.4768 12.5395L30.9768 8.14571C28.2131 5.57679 24.6165 4 20.3114 4C14.0751 4 8.68918 7.57875 6.06714 12.7874L11.2227 16.7914C12.5161 12.9469 16.0949 10.1654 20.3114 10.1654Z" fill="#EB4335"/>
</g>
<defs>
<clipPath id="clip0_858_2121">
<rect width="31.2704" height="32" fill="white" transform="translate(4.36475 4)"/>
</clipPath>
</defs>
</svg>
