<svg width="40" height="40" viewBox="0 0 40 40" fill="none" xmlns="http://www.w3.org/2000/svg">
<rect width="40" height="40" rx="8" fill="white"/>
<path d="M33.8301 5.92004L21.8433 14.8228L24.0599 9.5703L33.8301 5.92004Z" fill="#E2761B" stroke="#E2761B" stroke-linecap="round" stroke-linejoin="round"/>
<path d="M6.15801 5.92004L18.0485 14.9072L15.9402 9.5703L6.15801 5.92004ZM29.5173 26.5567L26.3248 31.4477L33.1555 33.3271L35.1191 26.6651L29.5173 26.5567ZM4.89307 26.6651L6.8447 33.3271L13.6753 31.4477L10.4829 26.5567L4.89307 26.6651Z" fill="#E4761B" stroke="#E4761B" stroke-linecap="round" stroke-linejoin="round"/>
<path d="M13.2899 18.2924L11.3865 21.1716L18.1689 21.4728L17.928 14.1843L13.2899 18.2924ZM26.6983 18.2923L21.9999 14.1L21.8433 21.4728L28.6137 21.1716L26.6983 18.2923ZM13.6754 31.4478L17.7473 29.46L14.2295 26.7132L13.6754 31.4478ZM22.2409 29.46L26.3248 31.4478L25.7586 26.7132L22.2409 29.46Z" fill="#E4761B" stroke="#E4761B" stroke-linecap="round" stroke-linejoin="round"/>
<path d="M26.3247 31.4477L22.2408 29.46L22.566 32.1224L22.5299 33.2427L26.3247 31.4477ZM13.6753 31.4477L17.4702 33.2427L17.446 32.1224L17.7472 29.46L13.6753 31.4477Z" fill="#D7C1B3" stroke="#D7C1B3" stroke-linecap="round" stroke-linejoin="round"/>
<path d="M17.5304 24.9543L14.1331 23.9544L16.5304 22.8582L17.5304 24.9543ZM22.4576 24.9543L23.4575 22.8582L25.8669 23.9544L22.4576 24.9543Z" fill="#233447" stroke="#233447" stroke-linecap="round" stroke-linejoin="round"/>
<path d="M13.6754 31.4478L14.2537 26.5567L10.4829 26.6651L13.6754 31.4478ZM25.7465 26.5567L26.3248 31.4478L29.5173 26.6651L25.7465 26.5567ZM28.6137 21.1716L21.8433 21.4728L22.4697 24.9544L23.4697 22.8582L25.8791 23.9545L28.6137 21.1716ZM14.1331 23.9545L16.5426 22.8582L17.5305 24.9544L18.1689 21.4728L11.3865 21.1716L14.1331 23.9545Z" fill="#CD6116" stroke="#CD6116" stroke-linecap="round" stroke-linejoin="round"/>
<path d="M11.3865 21.1716L14.2295 26.7133L14.1332 23.9545L11.3865 21.1716ZM25.8791 23.9545L25.7586 26.7133L28.6137 21.1717L25.8791 23.9545ZM18.1689 21.4729L17.5305 24.9545L18.3255 29.0625L18.5063 23.6534L18.1689 21.4729ZM21.8433 21.4729L21.518 23.6413L21.6626 29.0625L22.4697 24.9545L21.8433 21.4729Z" fill="#E4751F" stroke="#E4751F" stroke-linecap="round" stroke-linejoin="round"/>
<path d="M22.4696 24.9543L21.6625 29.0624L22.2408 29.4599L25.7585 26.7133L25.879 23.9545L22.4696 24.9543ZM14.1331 23.9545L14.2294 26.7133L17.7472 29.4599L18.3254 29.0624L17.5304 24.9543L14.1331 23.9545Z" fill="#F6851B" stroke="#F6851B" stroke-linecap="round" stroke-linejoin="round"/>
<path d="M22.5299 33.2428L22.566 32.1224L22.2649 31.8574H17.7232L17.446 32.1224L17.4702 33.2428L13.6753 31.4478L15.0005 32.532L17.687 34.3992H22.301L24.9996 32.532L26.3248 31.4478L22.5299 33.2428Z" fill="#C0AD9E" stroke="#C0AD9E" stroke-linecap="round" stroke-linejoin="round"/>
<path d="M22.2408 29.4599L21.6626 29.0624H18.3255L17.7472 29.4599L17.446 32.1223L17.7232 31.8573H22.2649L22.566 32.1223L22.2408 29.4599Z" fill="#161616" stroke="#161616" stroke-linecap="round" stroke-linejoin="round"/>
<path d="M34.3359 15.4011L35.3599 10.4859L33.8299 5.92004L22.2407 14.5216L26.6981 18.2924L32.9987 20.1356L34.3961 18.5092L33.7937 18.0755L34.7575 17.1961L34.0106 16.6178L34.9744 15.883L34.3359 15.4011ZM4.63989 10.4859L5.66389 15.4011L5.01335 15.883L5.97711 16.6178L5.24225 17.1961L6.20601 18.0755L5.60366 18.5092L6.98907 20.1356L13.2897 18.2924L17.7471 14.5216L6.15783 5.92004L4.63989 10.4859Z" fill="#763D16" stroke="#763D16" stroke-linecap="round" stroke-linejoin="round"/>
<path d="M32.9989 20.1355L26.6982 18.2923L28.6137 21.1715L25.7586 26.7132L29.5173 26.665H35.1191L32.9989 20.1355ZM13.2899 18.2923L6.98925 20.1355L4.89307 26.665H10.4829L14.2295 26.7132L11.3864 21.1715L13.2899 18.2923ZM21.8433 21.4727L22.2408 14.5216L24.0719 9.57019H15.9402L17.7473 14.5216L18.1689 21.4727L18.3135 23.6652L18.3255 29.0624H21.6625L21.6867 23.6652L21.8433 21.4727Z" fill="#F6851B" stroke="#F6851B" stroke-linecap="round" stroke-linejoin="round"/>
</svg>
