<svg width="119" height="119" viewBox="0 0 119 119" fill="none" xmlns="http://www.w3.org/2000/svg">
<rect x="0.00683594" width="119" height="119" fill="white"/>
<path d="M111.919 65.6142C116.07 56.3015 95.4252 30.1587 75.6779 19.3874C63.2236 10.9724 50.3205 12.0944 47.6277 15.797C41.9054 23.8755 66.7018 30.8319 83.3076 38.7982C79.7171 40.369 76.3511 43.174 74.4437 46.6523C68.2726 39.9202 54.6963 34.0858 38.7638 38.7982C27.9925 41.9398 19.1287 49.4573 15.6505 60.6774C14.865 60.3408 13.8552 60.1164 12.9576 60.1164C9.25501 60.1164 6.22559 63.1458 6.22559 66.8484C6.22559 70.551 9.25501 73.5804 12.9576 73.5804C13.6308 73.5804 15.7627 73.1316 15.7627 73.1316L50.3205 73.3561C36.5198 95.3474 25.5241 98.489 25.5241 102.304C25.5241 106.119 35.9588 105.109 39.8858 103.65C58.7356 96.9182 78.9317 75.7123 82.4099 69.6534C96.9961 71.5608 109.226 71.673 111.919 65.6142Z" fill="url(#paint0_linear_3381_2077)"/>
<path fill-rule="evenodd" clip-rule="evenodd" d="M83.4208 38.798C84.2062 38.4614 84.094 37.3394 83.8696 36.4418C83.4208 34.4222 75.0057 26.1193 67.1516 22.4167C56.3804 17.3677 48.5263 17.5921 47.4043 19.9483C49.5361 24.4363 59.7464 28.5877 70.2933 33.0758C74.6691 34.871 79.2693 36.7784 83.4208 38.798Z" fill="url(#paint1_linear_3381_2077)"/>
<path fill-rule="evenodd" clip-rule="evenodd" d="M69.7304 83.9024C67.5986 83.117 65.1302 82.3316 62.3251 81.6584C65.2424 76.3849 65.9156 68.4187 63.1106 63.4818C59.1835 56.5254 54.2467 52.8228 42.69 52.8228C36.4068 52.8228 19.3522 54.9546 19.0156 69.2041C19.0156 70.6627 19.0156 72.0091 19.1278 73.3555H50.3197C46.1682 79.9754 42.2412 84.9122 38.763 88.6148C42.9144 89.6246 46.2804 90.5222 49.422 91.4198C52.3393 92.2052 55.1443 92.8785 57.9493 93.6639C62.213 90.5222 66.2522 87.1562 69.7304 83.9024Z" fill="url(#paint2_linear_3381_2077)"/>
<path d="M15.201 71.673C16.4352 82.4443 22.6062 86.7079 35.1727 87.9421C47.7392 89.1764 54.9201 88.391 64.4571 89.1764C72.4234 89.8496 79.6043 94.001 82.1849 92.5424C84.5411 91.3082 83.1947 86.7079 80.0531 83.7907C75.9016 79.9759 70.1794 77.3953 60.1935 76.3855C62.2131 70.8876 61.6521 63.1458 58.5105 58.9943C54.0225 52.9355 45.7196 50.2427 35.1727 51.3647C24.177 52.7111 13.6302 58.2089 15.201 71.673Z" fill="url(#paint3_linear_3381_2077)"/>
<defs>
<linearGradient id="paint0_linear_3381_2077" x1="37.6224" y1="56.9252" x2="111.166" y2="77.7808" gradientUnits="userSpaceOnUse">
<stop stop-color="#8797FF"/>
<stop offset="1" stop-color="#AAA8FF"/>
</linearGradient>
<linearGradient id="paint1_linear_3381_2077" x1="96.0524" y1="58.5717" x2="42.9875" y2="5.37687" gradientUnits="userSpaceOnUse">
<stop stop-color="#3B22A0"/>
<stop offset="1" stop-color="#5156D8" stop-opacity="0"/>
</linearGradient>
<linearGradient id="paint2_linear_3381_2077" x1="71.1946" y1="85.8249" x2="20.2199" y2="56.5181" gradientUnits="userSpaceOnUse">
<stop stop-color="#3B1E8F"/>
<stop offset="1" stop-color="#6A6FFB" stop-opacity="0"/>
</linearGradient>
<linearGradient id="paint3_linear_3381_2077" x1="34.0691" y1="62.9736" x2="68.5243" y2="106.753" gradientUnits="userSpaceOnUse">
<stop stop-color="#8898FF"/>
<stop offset="0.9839" stop-color="#5F47F1"/>
</linearGradient>
</defs>
</svg>
