<svg width="40" height="40" viewBox="0 0 40 40" fill="none" xmlns="http://www.w3.org/2000/svg">
<rect width="40" height="40" rx="8" fill="#3396FF"/>
<g clip-path="url(#clip0_858_2122)">
<path d="M20.0072 37.9856C29.9364 37.9856 37.9856 29.9364 37.9856 20.0072C37.9856 10.078 29.9364 2.02881 20.0072 2.02881C10.078 2.02881 2.02881 10.078 2.02881 20.0072C2.02881 29.9364 10.078 37.9856 20.0072 37.9856Z" fill="#3396FF"/>
<path d="M13.0147 15.4081C16.8641 11.6452 23.1212 11.6452 26.985 15.4081L27.4464 15.8551C27.6338 16.0425 27.6338 16.3452 27.4464 16.5327L25.8605 18.0753C25.7596 18.1762 25.601 18.1762 25.5145 18.0753L24.8801 17.4554C22.1841 14.8314 17.8301 14.8314 15.134 17.4554L14.4564 18.1186C14.3555 18.2195 14.1969 18.2195 14.1104 18.1186L12.5245 16.5759C12.3371 16.3885 12.3371 16.0857 12.5245 15.8983L13.0291 15.4081H13.0147ZM30.2578 18.6088L31.6707 19.9928C31.8581 20.1803 31.8581 20.483 31.6707 20.6704L25.2982 26.8843C25.1108 27.0717 24.7936 27.0717 24.6062 26.8843L20.0792 22.4726C20.0359 22.4293 19.9494 22.4293 19.9062 22.4726L15.3791 26.8843C15.1917 27.0717 14.8745 27.0717 14.6871 26.8843L8.31464 20.6704C8.12722 20.483 8.12722 20.1803 8.31464 19.9928L9.72754 18.6088C9.91496 18.4213 10.2321 18.4213 10.4196 18.6088L14.9466 23.0205C14.9899 23.0637 15.0764 23.0637 15.1196 23.0205L19.6466 18.6088C19.8341 18.4213 20.1512 18.4213 20.3387 18.6088L24.8657 23.0205C24.909 23.0637 24.9955 23.0637 25.0387 23.0205L29.5657 18.6088C29.7532 18.4213 30.0703 18.4213 30.2578 18.6088Z" fill="white"/>
</g>
<defs>
<clipPath id="clip0_858_2122">
<rect width="36" height="36" fill="white" transform="translate(2 2)"/>
</clipPath>
</defs>
</svg>
