<?xml version="1.0" standalone="no"?>
<!DOCTYPE svg PUBLIC "-//W3C//DTD SVG 20010904//EN"
 "http://www.w3.org/TR/2001/REC-SVG-20010904/DTD/svg10.dtd">
<svg version="1.0" xmlns="http://www.w3.org/2000/svg"
 width="512.000000pt" height="512.000000pt" viewBox="0 0 512.000000 512.000000"
 preserveAspectRatio="xMidYMid meet">
<metadata>
Created by potrace 1.14, written by Peter Selinger 2001-2017
</metadata>
<g transform="translate(0.000000,512.000000) scale(0.100000,-0.100000)"
fill="#000000" stroke="none">
<path d="M1602 4581 c-19 -9 -48 -35 -65 -57 -40 -50 -99 -123 -112 -138 -5
-6 -28 -34 -50 -61 -21 -28 -42 -52 -45 -55 -3 -3 -41 -50 -85 -105 -44 -55
-85 -107 -92 -115 -7 -8 -56 -69 -110 -135 -53 -66 -129 -159 -168 -206 -38
-47 -83 -103 -100 -124 -16 -21 -34 -43 -40 -49 -5 -6 -37 -45 -69 -86 -33
-41 -73 -91 -90 -111 -17 -19 -44 -53 -61 -74 -16 -21 -88 -111 -160 -199 -71
-88 -181 -222 -242 -299 l-113 -140 0 -57 c0 -45 6 -65 26 -96 15 -21 29 -41
33 -44 3 -3 18 -21 33 -42 15 -20 33 -42 40 -50 7 -7 40 -47 72 -88 33 -41 62
-77 66 -80 3 -3 39 -48 81 -100 42 -52 156 -194 254 -315 98 -121 221 -274
274 -340 53 -66 98 -122 101 -125 3 -3 33 -39 65 -80 33 -41 62 -77 65 -80 3
-3 32 -39 65 -80 32 -41 62 -77 65 -80 3 -3 21 -25 40 -50 19 -25 37 -47 40
-50 4 -3 51 -61 106 -130 160 -201 171 -211 243 -212 69 -1 99 26 266 236 17
21 42 52 56 70 21 24 134 164 232 286 88 111 134 167 143 177 7 7 51 62 100
123 48 60 90 110 94 110 5 0 34 -34 126 -150 7 -8 36 -44 66 -80 29 -36 71
-87 93 -115 22 -27 42 -52 45 -55 3 -3 50 -61 105 -130 55 -69 107 -134 117
-145 9 -11 65 -81 125 -155 116 -143 150 -171 211 -172 70 -1 93 20 255 222 7
8 28 35 47 60 19 24 42 52 50 60 9 9 29 34 45 55 17 22 32 42 35 45 4 3 33 39
66 80 32 41 64 80 69 86 6 6 21 26 35 44 14 18 30 38 35 44 6 6 38 44 70 85
33 41 83 102 110 136 28 34 64 79 80 100 17 21 35 43 40 49 6 6 26 31 45 56
19 25 42 54 51 65 132 160 179 219 264 325 55 69 102 127 105 130 3 3 21 25
40 50 19 25 37 47 40 50 5 4 38 45 100 123 8 11 20 25 27 32 41 44 63 90 63
136 0 54 -10 85 -37 114 -10 11 -54 65 -98 120 -44 55 -82 102 -85 105 -3 3
-41 50 -85 105 -44 55 -82 102 -85 105 -3 3 -23 28 -45 55 -22 28 -53 66 -70
86 -16 20 -37 45 -45 55 -42 54 -176 220 -181 224 -5 4 -213 262 -344 424
-130 162 -252 313 -272 336 -11 14 -65 79 -118 145 -112 140 -128 153 -187
161 -68 9 -104 -13 -189 -118 -41 -50 -78 -96 -84 -102 -5 -6 -22 -27 -37 -48
-15 -20 -33 -42 -41 -50 -7 -7 -50 -60 -97 -118 -112 -140 -164 -204 -170
-210 -3 -3 -21 -25 -40 -50 -19 -25 -37 -47 -40 -50 -3 -3 -24 -27 -45 -55
-60 -75 -68 -85 -89 -108 -10 -12 -30 -37 -43 -54 -14 -18 -29 -33 -32 -33 -4
0 -32 30 -62 67 -30 37 -62 77 -71 88 -9 11 -90 110 -178 220 -194 240 -204
252 -272 335 -30 36 -91 111 -136 166 -84 105 -112 124 -176 124 -17 -1 -46
-9 -64 -19z"/>
</g>
</svg>
